<svg width="22" height="22" viewBox="0 0 22 22" fill="none" xmlns="http://www.w3.org/2000/svg">
<path d="M3.225 9.44715C2.86928 8.46261 2.69142 7.97036 2.76727 7.65492C2.85022 7.30991 3.09558 7.04093 3.4092 6.95121C3.69593 6.86917 4.14198 7.06742 5.03408 7.46391C5.82315 7.81462 6.21768 7.98997 6.58837 7.98021C6.99652 7.96947 7.38914 7.8058 7.70146 7.5162C7.98513 7.25317 8.17539 6.83403 8.55592 5.99575L9.39455 4.14831C10.0951 2.6051 10.4453 1.8335 11 1.8335C11.5547 1.8335 11.9049 2.6051 12.6054 4.14831L13.4441 5.99575C13.8246 6.83403 14.0149 7.25317 14.2985 7.5162C14.6108 7.8058 15.0034 7.96947 15.4116 7.98021C15.7823 7.98997 16.1769 7.81462 16.9659 7.46391C17.858 7.06742 18.3041 6.86917 18.5908 6.95121C18.9044 7.04093 19.1498 7.30991 19.2328 7.65492C19.3086 7.97036 19.1307 8.46261 18.775 9.44705L17.246 13.6788C16.5918 15.4891 16.2649 16.3942 15.5804 16.9055C14.896 17.4168 14.0116 17.4168 12.2428 17.4168H9.75718C7.98837 17.4168 7.10395 17.4168 6.41955 16.9055C5.73516 16.3942 5.40812 15.4891 4.75403 13.6788L3.225 9.44715Z" stroke="#515151"/>
<path d="M11 12.8335H11.0082" stroke="#515151" stroke-linecap="round" stroke-linejoin="round"/>
<path d="M6.41669 20.1665H15.5834" stroke="#515151" stroke-linecap="round"/>
</svg>
