<svg width="22" height="22" viewBox="0 0 22 22" fill="none" xmlns="http://www.w3.org/2000/svg">
<path d="M16.0467 1.85068C11.7598 2.5985 11 6.87517 11 6.87517V20.1668C11 20.1668 11.8128 15.7001 16.5004 15.1791C17.0035 15.1231 17.4167 14.7196 17.4167 14.2138V3.1105C17.4167 2.35178 16.7948 1.72018 16.0467 1.85068Z" stroke="#515151" stroke-linecap="round" stroke-linejoin="round"/>
<path d="M4.88887 4.58351C7.14429 4.58035 9.3211 5.39666 11 6.87516V20.1668C9.3211 18.6883 7.14429 17.872 4.88887 17.8752C3.45702 17.8752 2.74111 17.8752 2.4248 17.6728C2.2349 17.5512 2.15732 17.4736 2.03577 17.2836C1.83331 16.9674 1.83331 16.4031 1.83331 15.2745V7.70311C1.83331 6.39431 1.83331 5.73991 2.33632 5.20945C2.83934 4.67899 3.35427 4.65162 4.38414 4.59688C4.55123 4.588 4.71951 4.58351 4.88887 4.58351Z" stroke="#515151" stroke-linecap="round" stroke-linejoin="round"/>
<path d="M11 20.1677C12.6789 18.6893 14.8557 17.873 17.1111 17.8761C18.543 17.8761 19.2589 17.8761 19.5751 17.6737C19.7651 17.5521 19.8426 17.4745 19.9642 17.2846C20.1667 16.9683 20.1667 16.404 20.1667 15.2754V7.70405C20.1667 6.39524 20.1667 5.74084 19.6637 5.21039C19.1606 4.67993 18.4465 4.63824 17.4167 4.5835" stroke="#515151" stroke-linecap="round" stroke-linejoin="round"/>
</svg>
