<svg width="22" height="22" viewBox="0 0 22 22" fill="none" xmlns="http://www.w3.org/2000/svg">
<path d="M12.5494 17.8353C12.375 17.4142 12.375 16.8803 12.375 15.8125C12.375 14.7447 12.375 14.2108 12.5494 13.7897C12.782 13.2281 13.2281 12.782 13.7897 12.5494C14.2108 12.375 14.7447 12.375 15.8125 12.375C16.8803 12.375 17.4142 12.375 17.8353 12.5494C18.3969 12.782 18.843 13.2281 19.0756 13.7897C19.25 14.2108 19.25 14.7447 19.25 15.8125C19.25 16.8803 19.25 17.4142 19.0756 17.8353C18.843 18.3969 18.3969 18.843 17.8353 19.0756C17.4142 19.25 16.8803 19.25 15.8125 19.25C14.7447 19.25 14.2108 19.25 13.7897 19.0756C13.2281 18.843 12.782 18.3969 12.5494 17.8353Z" stroke="#515151" stroke-linecap="square" stroke-linejoin="round"/>
<path d="M12.5494 8.21032C12.375 7.78917 12.375 7.25528 12.375 6.1875C12.375 5.11972 12.375 4.58583 12.5494 4.16468C12.782 3.60316 13.2281 3.15704 13.7897 2.92444C14.2108 2.75 14.7447 2.75 15.8125 2.75C16.8803 2.75 17.4142 2.75 17.8353 2.92444C18.3969 3.15704 18.843 3.60316 19.0756 4.16468C19.25 4.58583 19.25 5.11972 19.25 6.1875C19.25 7.25528 19.25 7.78917 19.0756 8.21032C18.843 8.77184 18.3969 9.218 17.8353 9.45056C17.4142 9.625 16.8803 9.625 15.8125 9.625C14.7447 9.625 14.2108 9.625 13.7897 9.45056C13.2281 9.218 12.782 8.77184 12.5494 8.21032Z" stroke="#515151" stroke-linecap="square" stroke-linejoin="round"/>
<path d="M2.92444 17.8353C2.75 17.4142 2.75 16.8803 2.75 15.8125C2.75 14.7447 2.75 14.2108 2.92444 13.7897C3.15704 13.2281 3.60316 12.782 4.16468 12.5494C4.58583 12.375 5.11972 12.375 6.1875 12.375C7.25528 12.375 7.78917 12.375 8.21032 12.5494C8.77184 12.782 9.218 13.2281 9.45056 13.7897C9.625 14.2108 9.625 14.7447 9.625 15.8125C9.625 16.8803 9.625 17.4142 9.45056 17.8353C9.218 18.3969 8.77184 18.843 8.21032 19.0756C7.78917 19.25 7.25528 19.25 6.1875 19.25C5.11972 19.25 4.58583 19.25 4.16468 19.0756C3.60316 18.843 3.15704 18.3969 2.92444 17.8353Z" stroke="#515151" stroke-linecap="square" stroke-linejoin="round"/>
<path d="M2.92444 8.21032C2.75 7.78917 2.75 7.25528 2.75 6.1875C2.75 5.11972 2.75 4.58583 2.92444 4.16468C3.15704 3.60316 3.60316 3.15704 4.16468 2.92444C4.58583 2.75 5.11972 2.75 6.1875 2.75C7.25528 2.75 7.78917 2.75 8.21032 2.92444C8.77184 3.15704 9.218 3.60316 9.45056 4.16468C9.625 4.58583 9.625 5.11972 9.625 6.1875C9.625 7.25528 9.625 7.78917 9.45056 8.21032C9.218 8.77184 8.77184 9.218 8.21032 9.45056C7.78917 9.625 7.25528 9.625 6.1875 9.625C5.11972 9.625 4.58583 9.625 4.16468 9.45056C3.60316 9.218 3.15704 8.77184 2.92444 8.21032Z" stroke="#515151" stroke-linecap="square" stroke-linejoin="round"/>
</svg>
