<svg width="22" height="22" viewBox="0 0 22 22" fill="none" xmlns="http://www.w3.org/2000/svg">
<path d="M1.83331 5.5L8.17025 9.09056C10.5064 10.4143 11.4935 10.4143 13.8297 9.09056L20.1666 5.5" stroke="#515151" stroke-linejoin="round"/>
<path d="M1.84777 12.3528C1.90769 15.1629 1.93766 16.5679 2.97453 17.6088C4.01139 18.6496 5.45445 18.6858 8.34057 18.7583C10.1193 18.803 11.8806 18.803 13.6594 18.7583C16.5455 18.6858 17.9886 18.6496 19.0255 17.6088C20.0623 16.5679 20.0923 15.1629 20.1522 12.3528C20.1715 11.4492 20.1715 10.5511 20.1522 9.64753C20.0923 6.83745 20.0623 5.43241 19.0255 4.3916C17.9886 3.35079 16.5455 3.31454 13.6594 3.24202C11.8806 3.19732 10.1193 3.19732 8.34056 3.24201C5.45445 3.31452 4.01139 3.35077 2.97452 4.39159C1.93765 5.4324 1.90769 6.83744 1.84776 9.64753C1.82849 10.5511 1.8285 11.4492 1.84777 12.3528Z" stroke="#515151" stroke-linejoin="round"/>
</svg>
