<svg width="22" height="22" viewBox="0 0 22 22" fill="none" xmlns="http://www.w3.org/2000/svg">
<path d="M12.8333 2.03668C12.241 1.91657 11.6278 1.85352 11 1.85352C5.93737 1.85352 1.83331 5.95307 1.83331 11.0101C1.83331 16.0671 5.93737 20.1667 11 20.1667C16.0625 20.1667 20.1666 16.0671 20.1666 11.0101C20.1666 10.383 20.1035 9.77052 19.9833 9.17881" stroke="#515151" stroke-linecap="round"/>
<path d="M11 8.26331C9.98747 8.26331 9.16669 8.87825 9.16669 9.63677C9.16669 10.3953 9.98747 11.0103 11 11.0103C12.0126 11.0103 12.8334 11.6253 12.8334 12.3837C12.8334 13.1423 12.0126 13.7573 11 13.7573M11 8.26331C11.7983 8.26331 12.4773 8.64552 12.729 9.17899M11 8.26331V7.34766M11 13.7573C10.2018 13.7573 9.52272 13.3751 9.271 12.8416M11 13.7573V14.6729" stroke="#515151" stroke-linecap="round"/>
<path d="M20.1622 1.8335L16.3344 5.65931M15.5789 2.31125L15.6872 5.142C15.6872 5.8092 16.086 6.2249 16.8125 6.27733L19.6763 6.4118" stroke="#515151" stroke-linecap="round" stroke-linejoin="round"/>
</svg>
