<svg width="22" height="22" viewBox="0 0 22 22" fill="none" xmlns="http://www.w3.org/2000/svg">
<path d="M1.83331 7.33333C1.83331 8.5633 9.25364 11.9167 10.9872 11.9167C12.7207 11.9167 20.1412 8.5633 20.1412 7.33333C20.1412 6.10337 12.7207 2.75 10.9872 2.75C9.25364 2.75 1.83331 6.10337 1.83331 7.33333Z" stroke="#515151" stroke-linecap="round" stroke-linejoin="round"/>
<path d="M5.49463 10.0835L5.71931 15.2442C5.7238 15.3475 5.73498 15.451 5.76493 15.55C5.85748 15.856 6.02807 16.134 6.28833 16.3209C8.32467 17.7821 13.6493 17.7821 15.6855 16.3209C15.946 16.134 16.1165 15.856 16.2091 15.55C16.2389 15.451 16.2501 15.3475 16.2547 15.2442L16.4793 10.0835" stroke="#515151" stroke-linecap="round" stroke-linejoin="round"/>
<path d="M18.7673 8.7085V15.1252M18.7673 15.1252C18.0413 16.4509 17.7203 17.1613 17.3942 18.3335C17.3235 18.7506 17.3796 18.9608 17.6671 19.1474C17.7839 19.2232 17.9242 19.2502 18.0634 19.2502H19.4571C19.6053 19.2502 19.7548 19.2193 19.8768 19.1351C20.144 18.9509 20.2128 18.7487 20.1404 18.3335C19.8546 17.245 19.4905 16.5009 18.7673 15.1252Z" stroke="#515151" stroke-linecap="round" stroke-linejoin="round"/>
</svg>
