<svg width="22" height="22" viewBox="0 0 22 22" fill="none" xmlns="http://www.w3.org/2000/svg">
<path d="M19.0428 16.5C19.7297 16.5 20.276 16.0678 20.7666 15.4633C21.7707 14.2261 20.122 13.2374 19.4933 12.7532C18.854 12.261 18.1403 11.9821 17.4167 11.9167M16.5 10.0833C17.7656 10.0833 18.7917 9.05732 18.7917 7.79167C18.7917 6.52602 17.7656 5.5 16.5 5.5" stroke="#515151" stroke-linecap="round"/>
<path d="M2.95745 16.5C2.2706 16.5 1.72427 16.0678 1.23374 15.4633C0.229572 14.2261 1.87827 13.2374 2.50709 12.7532C3.1463 12.261 3.86002 11.9821 4.58366 11.9167M5.04199 10.0833C3.77634 10.0833 2.75032 9.05732 2.75032 7.79167C2.75032 6.52602 3.77634 5.5 5.04199 5.5" stroke="#515151" stroke-linecap="round"/>
<path d="M7.41047 13.8521C6.47385 14.4312 4.01806 15.6138 5.5138 17.0936C6.24446 17.8165 7.05822 18.3335 8.08132 18.3335H13.9194C14.9424 18.3335 15.7562 17.8165 16.4868 17.0936C17.9826 15.6138 15.5268 14.4312 14.5902 13.8521C12.3937 12.494 9.6069 12.494 7.41047 13.8521Z" stroke="#515151" stroke-linecap="round" stroke-linejoin="round"/>
<path d="M14.2087 6.87484C14.2087 8.64675 12.7722 10.0832 11.0003 10.0832C9.22841 10.0832 7.79199 8.64675 7.79199 6.87484C7.79199 5.10292 9.22841 3.6665 11.0003 3.6665C12.7722 3.6665 14.2087 5.10292 14.2087 6.87484Z" stroke="#515151"/>
</svg>
