<svg width="22" height="22" viewBox="0 0 22 22" fill="none" xmlns="http://www.w3.org/2000/svg">
<path d="M10.0833 7.3335H11.9166C14.5093 7.3335 15.8057 7.3335 16.6112 8.13895C17.4166 8.94441 17.4166 10.2408 17.4166 12.8335C17.4166 15.4262 17.4166 16.7225 16.6112 17.528C15.8057 18.3335 14.5093 18.3335 11.9166 18.3335H11C11 18.3335 10.5416 20.1668 7.33331 20.1668C7.33331 20.1668 8.24998 19.2422 8.24998 18.3176C6.82598 18.2747 5.97663 18.1159 5.38877 17.528C4.58331 16.7225 4.58331 15.4262 4.58331 12.8335C4.58331 10.2408 4.58331 8.94441 5.38877 8.13895C6.19423 7.3335 7.49059 7.3335 10.0833 7.3335Z" stroke="#515151" stroke-linejoin="round"/>
<path d="M17.4167 10.5415H17.875C18.7317 10.5415 19.1601 10.5415 19.4792 10.7258C19.6882 10.8464 19.8618 11.02 19.9824 11.229C20.1667 11.5481 20.1667 11.9765 20.1667 12.8332C20.1667 13.6899 20.1667 14.1182 19.9824 14.4373C19.8618 14.6463 19.6882 14.82 19.4792 14.9406C19.1601 15.1248 18.7317 15.1248 17.875 15.1248H17.4167" stroke="#515151" stroke-linejoin="round"/>
<path d="M4.58331 10.5415H4.12498C3.26824 10.5415 2.83989 10.5415 2.52081 10.7258C2.31179 10.8464 2.13821 11.02 2.01753 11.229C1.83331 11.5481 1.83331 11.9765 1.83331 12.8332C1.83331 13.6899 1.83331 14.1182 2.01753 14.4373C2.13821 14.6463 2.31179 14.82 2.52081 14.9406C2.83989 15.1248 3.26824 15.1248 4.12498 15.1248H4.58331" stroke="#515151" stroke-linejoin="round"/>
<path d="M12.375 3.2085C12.375 3.96789 11.7594 4.5835 11 4.5835C10.2406 4.5835 9.625 3.96789 9.625 3.2085C9.625 2.4491 10.2406 1.8335 11 1.8335C11.7594 1.8335 12.375 2.4491 12.375 3.2085Z" stroke="#515151"/>
<path d="M11 4.5835V7.3335" stroke="#515151" stroke-linecap="round" stroke-linejoin="round"/>
<path d="M8.25 11V11.9167M13.75 11V11.9167" stroke="#515151" stroke-linecap="round" stroke-linejoin="round"/>
<path d="M9.16669 15.125C9.16669 15.125 9.77783 15.5833 11 15.5833C12.2222 15.5833 12.8334 15.125 12.8334 15.125" stroke="#515151" stroke-linecap="round"/>
</svg>
