<svg width="22" height="22" viewBox="0 0 22 22" fill="none" xmlns="http://www.w3.org/2000/svg">
<path d="M16.9583 16.3517C17.9029 16.213 18.5741 15.9448 19.0927 15.4262C20.1666 14.3523 20.1666 12.6238 20.1666 9.16683C20.1666 5.70986 20.1666 3.98138 19.0927 2.90744C18.0188 1.8335 16.2902 1.8335 12.8333 1.8335H9.16665C5.70968 1.8335 3.9812 1.8335 2.90725 2.90744C1.83331 3.98138 1.83331 5.70986 1.83331 9.16683C1.83331 12.6238 1.83331 14.3523 2.90725 15.4262C3.64808 16.167 4.70037 16.3969 6.41665 16.4681" stroke="#515151" stroke-linecap="round"/>
<path d="M15.5834 6.4165H6.41669" stroke="#515151" stroke-linecap="round" stroke-linejoin="round"/>
<path d="M13.2916 13.2917C13.2916 14.5573 12.2656 15.5833 11 15.5833C9.73434 15.5833 8.70831 14.5573 8.70831 13.2917C8.70831 12.026 9.73434 11 11 11C12.2656 11 13.2916 12.026 13.2916 13.2917Z" stroke="#515151"/>
<path d="M8.70831 13.2915C8.70831 17.0186 10.287 19.1312 11 20.1665L12.375 17.4165L13.9791 18.3332L15.5833 19.2498C14.9098 18.5979 14.2136 16.543 14.2136 16.543" stroke="#515151" stroke-linecap="round" stroke-linejoin="round"/>
</svg>
