<svg width="22" height="22" viewBox="0 0 22 22" fill="none" xmlns="http://www.w3.org/2000/svg">
<path d="M4.88887 2.75001C7.14429 2.74686 9.3211 3.56317 11 5.04167V19.25C9.3211 17.7715 7.14429 16.9552 4.88887 16.9583C3.45702 16.9583 2.74111 16.9583 2.4248 16.7559C2.2349 16.6344 2.15732 16.5567 2.03577 16.3668C1.83331 16.0506 1.83331 15.4863 1.83331 14.3577V5.86962C1.83331 4.56081 1.83331 3.90641 2.33632 3.37595C2.83934 2.8455 3.35427 2.81813 4.38414 2.76338C4.55123 2.7545 4.71951 2.75001 4.88887 2.75001Z" stroke="#515151" stroke-linecap="round" stroke-linejoin="round"/>
<path d="M11 19.25V5.04167C12.6789 3.56317 14.8557 2.74686 17.1111 2.75001C17.2805 2.75001 17.4488 2.7545 17.6159 2.76338C18.6457 2.81813 19.1606 2.8455 19.6637 3.37595C20.1667 3.90641 20.1667 4.56081 20.1667 5.86962V10.5417" stroke="#515151" stroke-linecap="round" stroke-linejoin="round"/>
<path d="M19.8813 13.6896L19.3106 13.1189C18.9301 12.7384 18.3132 12.7384 17.9327 13.1189L14.8629 16.1886C14.4549 16.5966 14.1768 17.1164 14.0636 17.6822L13.75 19.2502L15.318 18.9366C15.8838 18.8234 16.4036 18.5453 16.8116 18.1373L19.8813 15.0675C20.2618 14.687 20.2618 14.0701 19.8813 13.6896Z" stroke="#515151" stroke-linecap="round" stroke-linejoin="round"/>
</svg>
