<svg width="22" height="22" viewBox="0 0 22 22" fill="none" xmlns="http://www.w3.org/2000/svg">
<path d="M19.5411 6.54611L19.0886 5.7609C18.7464 5.16705 18.5754 4.87013 18.2842 4.75173C17.9931 4.63333 17.6638 4.72676 17.0054 4.91361L15.8869 5.22867C15.4665 5.32562 15.0254 5.27062 14.6416 5.0734L14.3327 4.89522C14.0036 4.6844 13.7504 4.37356 13.6102 4.00818L13.3042 3.09392C13.1029 2.4889 13.0022 2.18639 12.7626 2.01336C12.5231 1.84033 12.2048 1.84033 11.5683 1.84033H10.5464C9.90992 1.84033 9.59165 1.84033 9.35204 2.01336C9.11246 2.18639 9.01182 2.4889 8.81055 3.09392L8.50442 4.00818C8.36428 4.37356 8.1111 4.6844 7.78194 4.89522L7.47313 5.0734C7.08928 5.27062 6.64823 5.32562 6.22783 5.22867L5.10929 4.91361C4.45081 4.72676 4.12158 4.63333 3.83047 4.75173C3.53935 4.87013 3.36827 5.16705 3.02607 5.7609L2.57362 6.54611C2.25287 7.10276 2.09249 7.38109 2.12362 7.67737C2.15474 7.97366 2.36945 8.21242 2.79884 8.68995L3.74396 9.74657C3.97496 10.039 4.13896 10.5487 4.13896 11.0069C4.13896 11.4653 3.97502 11.9748 3.74399 12.2673L2.79884 13.324C2.36945 13.8015 2.15475 14.0402 2.12362 14.3366C2.09249 14.6329 2.25287 14.9112 2.57362 15.4678L3.02606 16.253C3.36825 16.8468 3.53935 17.1438 3.83047 17.2621C4.12158 17.3806 4.45082 17.2872 5.10931 17.1003L6.2278 16.7852C6.64826 16.6882 7.0894 16.7433 7.4733 16.9406L7.78206 17.1188C8.11115 17.3296 8.36427 17.6404 8.50439 18.0057L8.81055 18.9201C9.01182 19.5251 9.11246 19.8276 9.35204 20.0007C9.59165 20.1737 9.90992 20.1737 10.5464 20.1737H11.5683C12.2048 20.1737 12.5231 20.1737 12.7626 20.0007C13.0022 19.8276 13.1029 19.5251 13.3042 18.9201L13.6103 18.0057C13.7504 17.6404 14.0035 17.3296 14.3327 17.1188L14.6414 16.9406C15.0253 16.7433 15.4664 16.6882 15.8869 16.7852L17.0054 17.1003C17.6638 17.2872 17.9931 17.3806 18.2842 17.2621C18.5754 17.1438 18.7464 16.8468 19.0886 16.253L19.5411 15.4678C19.8618 14.9112 20.0221 14.6329 19.9911 14.3366C19.9599 14.0402 19.7452 13.8015 19.3158 13.324L18.3707 12.2673C18.1397 11.9748 17.9757 11.4653 17.9757 11.0069C17.9757 10.5487 18.1398 10.039 18.3707 9.74657L19.3158 8.68995C19.7452 8.21242 19.9599 7.97366 19.9911 7.67737C20.0221 7.38109 19.8618 7.10276 19.5411 6.54611Z" stroke="#515151" stroke-linecap="round"/>
<path d="M14.2262 10.9998C14.2262 12.7718 12.7898 14.2082 11.0179 14.2082C9.24596 14.2082 7.80957 12.7718 7.80957 10.9998C7.80957 9.22792 9.24596 7.7915 11.0179 7.7915C12.7898 7.7915 14.2262 9.22792 14.2262 10.9998Z" stroke="#515151"/>
</svg>
